<svg width="19" height="19" viewBox="0 0 19 19" fill="none" xmlns="http://www.w3.org/2000/svg">
<path d="M8.19713 7.1175V8.17288H7.42456L7.42456 9.4628H8.19713L8.19713 13.2973H9.78519L9.78519 9.4628H10.8505C10.8505 9.4628 10.9509 8.84428 10.9992 8.16752H9.79132V7.28611C9.79132 7.15352 9.96454 6.97647 10.1362 6.97647L11.0008 6.97647V5.6329L9.82428 5.6329C8.15804 5.6329 8.19713 6.92435 8.19713 7.1175Z" fill="white"/>
<path d="M9.19738 15.5968C10.8236 15.5968 12.3831 14.9508 13.533 13.8009C14.6829 12.651 15.3289 11.0914 15.3289 9.46526C15.3289 7.83908 14.6829 6.27951 13.533 5.12963C12.3831 3.97975 10.8236 3.33375 9.19738 3.33375C7.5712 3.33375 6.01163 3.97975 4.86175 5.12963C3.71186 6.27951 3.06587 7.83908 3.06587 9.46526C3.06587 11.0914 3.71186 12.651 4.86175 13.8009C6.01163 14.9508 7.5712 15.5968 9.19738 15.5968ZM9.19738 17.1297C4.96434 17.1297 1.53299 13.6983 1.53299 9.46526C1.53299 5.23222 4.96434 1.80087 9.19738 1.80087C13.4304 1.80087 16.8618 5.23222 16.8618 9.46526C16.8618 13.6983 13.4304 17.1297 9.19738 17.1297Z" fill="white"/>
</svg>
