<svg width="48" height="60" viewBox="0 0 48 60" fill="none" xmlns="http://www.w3.org/2000/svg">
<g clip-path="url(#clip0)">
<path d="M9.77001 45H10.5V46C10.5 46.5304 10.7107 47.0391 11.0858 47.4142C11.4609 47.7893 11.9696 48 12.5 48H28.5C29.0304 48 29.5391 47.7893 29.9142 47.4142C30.2893 47.0391 30.5 46.5304 30.5 46V45H31.23C31.6571 45.0033 32.08 44.9153 32.4704 44.7419C32.8608 44.5686 33.2097 44.3139 33.4937 43.9948C33.7777 43.6758 33.9903 43.2998 34.1173 42.8919C34.2443 42.4841 34.2827 42.0539 34.23 41.63L33.49 35.72H34.25C34.5152 35.72 34.7696 35.8254 34.9571 36.0129C35.1446 36.2004 35.25 36.4548 35.25 36.72V45C35.25 45.7957 35.5661 46.5587 36.1287 47.1213C36.6913 47.6839 37.4544 48 38.25 48C39.0457 48 39.8087 47.6839 40.3713 47.1213C40.9339 46.5587 41.25 45.7957 41.25 45V39H39.25V45C39.25 45.2652 39.1446 45.5196 38.9571 45.7071C38.7696 45.8946 38.5152 46 38.25 46C37.9848 46 37.7304 45.8946 37.5429 45.7071C37.3554 45.5196 37.25 45.2652 37.25 45V36.72C37.25 35.9244 36.9339 35.1613 36.3713 34.5987C35.8087 34.0361 35.0457 33.72 34.25 33.72H33.25L29.71 5.63C29.6342 5.03771 29.3835 4.48151 28.9898 4.03258C28.5961 3.58365 28.0773 3.26241 27.5 3.11V2C27.5 1.46957 27.2893 0.960859 26.9142 0.585786C26.5391 0.210714 26.0304 0 25.5 0L15.5 0C14.9696 0 14.4609 0.210714 14.0858 0.585786C13.7107 0.960859 13.5 1.46957 13.5 2V3.11C12.9227 3.26241 12.404 3.58365 12.0103 4.03258C11.6165 4.48151 11.3658 5.03771 11.29 5.63L6.79001 41.63C6.73731 42.0539 6.77574 42.4841 6.90273 42.8919C7.02971 43.2998 7.24232 43.6758 7.52633 43.9948C7.81034 44.3139 8.15921 44.5686 8.54959 44.7419C8.93998 44.9153 9.36288 45.0033 9.79001 45H9.77001ZM28.5 46H12.5V45H28.5V46ZM32.23 41.88C32.2458 42.0203 32.2316 42.1623 32.1885 42.2968C32.1454 42.4312 32.0744 42.555 31.98 42.66C31.8863 42.7667 31.7709 42.8522 31.6416 42.9108C31.5123 42.9694 31.372 42.9998 31.23 43H19L31.89 39.1L32.23 41.88ZM29.23 17.82L28.6 18.01L25.52 16.01L28.88 15.01L29.23 17.82ZM28.62 13L23.3 14.61L20.22 12.61L28.27 10.18L28.62 13ZM27.53 5.42C27.6347 5.55385 27.7035 5.71217 27.73 5.88L28 8.19L18 11.19L14.92 9.19L27.53 5.42ZM15.5 2H25.5V3H15.5V2ZM13.27 5.88C13.2995 5.63609 13.4177 5.41157 13.6022 5.24926C13.7866 5.08695 14.0243 4.99823 14.27 5H22L13 7.71L13.27 5.88ZM12.73 10.2L29.62 21.05L29.86 22.94L12.53 11.82L12.73 10.2ZM12.26 14L30.18 25.53L30.51 28.11L12 16.22L12.26 14ZM11.71 18.4L30.83 30.69L31.08 32.69L11.49 20.15L11.71 18.4ZM11.21 22.33L12.21 22.95L11.13 23.28L11.21 22.33ZM10.82 25.45L14.4 24.37L17.48 26.37L10.48 28.5L10.82 25.45ZM10.17 30.65L19.69 27.77L22.78 29.77L9.78 33.69L10.17 30.65ZM9.53 35.84L25 31.19L28.08 33.19L9.15 38.89L9.53 35.84ZM8.88001 41.04L30.29 34.57L31.41 35.29L31.63 37.07L12.08 43H9.77001C9.62466 43.0027 9.48047 42.9737 9.34749 42.915C9.21451 42.8562 9.09592 42.7692 9.00001 42.66C8.90564 42.555 8.83457 42.4312 8.79148 42.2968C8.74839 42.1623 8.73426 42.0203 8.75001 41.88L8.88001 41.04Z" fill="white"/>
<path d="M2.725 60.63H3.485C3.46167 60.4233 3.405 60.24 3.315 60.08C3.225 59.92 3.11 59.7867 2.97 59.68C2.83333 59.57 2.67667 59.4867 2.5 59.43C2.32667 59.3733 2.14167 59.345 1.945 59.345C1.67167 59.345 1.425 59.3933 1.205 59.49C0.988333 59.5867 0.805 59.72 0.655 59.89C0.505 60.06 0.39 60.26 0.31 60.49C0.23 60.7167 0.19 60.9633 0.19 61.23C0.19 61.49 0.23 61.7333 0.31 61.96C0.39 62.1833 0.505 62.3783 0.655 62.545C0.805 62.7117 0.988333 62.8433 1.205 62.94C1.425 63.0333 1.67167 63.08 1.945 63.08C2.165 63.08 2.36667 63.0467 2.55 62.98C2.73333 62.9133 2.89333 62.8167 3.03 62.69C3.16667 62.5633 3.27667 62.41 3.36 62.23C3.44333 62.05 3.495 61.8483 3.515 61.625H2.755C2.725 61.865 2.64167 62.0583 2.505 62.205C2.37167 62.3517 2.185 62.425 1.945 62.425C1.76833 62.425 1.61833 62.3917 1.495 62.325C1.37167 62.255 1.27167 62.1633 1.195 62.05C1.11833 61.9367 1.06167 61.81 1.025 61.67C0.991667 61.5267 0.975 61.38 0.975 61.23C0.975 61.0733 0.991667 60.9217 1.025 60.775C1.06167 60.6283 1.11833 60.4983 1.195 60.385C1.27167 60.2683 1.37167 60.1767 1.495 60.11C1.61833 60.04 1.76833 60.005 1.945 60.005C2.04167 60.005 2.13333 60.0217 2.22 60.055C2.31 60.085 2.39 60.1283 2.46 60.185C2.53 60.2417 2.58833 60.3083 2.635 60.385C2.68167 60.4583 2.71167 60.54 2.725 60.63ZM3.97605 60.415V63H4.68605V61.835C4.68605 61.7183 4.69772 61.61 4.72105 61.51C4.74439 61.41 4.78272 61.3233 4.83605 61.25C4.89272 61.1733 4.96605 61.1133 5.05605 61.07C5.14605 61.0267 5.25605 61.005 5.38605 61.005C5.42939 61.005 5.47439 61.0083 5.52105 61.015C5.56772 61.0183 5.60772 61.0233 5.64105 61.03V60.37C5.58439 60.3533 5.53272 60.345 5.48605 60.345C5.39605 60.345 5.30939 60.3583 5.22605 60.385C5.14272 60.4117 5.06439 60.45 4.99105 60.5C4.91772 60.5467 4.85272 60.605 4.79605 60.675C4.73939 60.7417 4.69439 60.815 4.66105 60.895H4.65105V60.415H3.97605ZM7.57152 61.43H6.41652C6.41986 61.38 6.42986 61.3233 6.44652 61.26C6.46652 61.1967 6.49819 61.1367 6.54152 61.08C6.58819 61.0233 6.64819 60.9767 6.72152 60.94C6.79819 60.9 6.89319 60.88 7.00652 60.88C7.17986 60.88 7.30819 60.9267 7.39152 61.02C7.47819 61.1133 7.53819 61.25 7.57152 61.43ZM6.41652 61.88H8.28152C8.29486 61.68 8.27819 61.4883 8.23152 61.305C8.18486 61.1217 8.10819 60.9583 8.00152 60.815C7.89819 60.6717 7.76486 60.5583 7.60152 60.475C7.43819 60.3883 7.24652 60.345 7.02652 60.345C6.82986 60.345 6.64986 60.38 6.48652 60.45C6.32652 60.52 6.18819 60.6167 6.07152 60.74C5.95486 60.86 5.86486 61.0033 5.80152 61.17C5.73819 61.3367 5.70652 61.5167 5.70652 61.71C5.70652 61.91 5.73652 62.0933 5.79652 62.26C5.85986 62.4267 5.94819 62.57 6.06152 62.69C6.17486 62.81 6.31319 62.9033 6.47652 62.97C6.63986 63.0333 6.82319 63.065 7.02652 63.065C7.31986 63.065 7.56986 62.9983 7.77652 62.865C7.98319 62.7317 8.13652 62.51 8.23652 62.2H7.61152C7.58819 62.28 7.52486 62.3567 7.42152 62.43C7.31819 62.5 7.19486 62.535 7.05152 62.535C6.85152 62.535 6.69819 62.4833 6.59152 62.38C6.48486 62.2767 6.42652 62.11 6.41652 61.88ZM8.67262 61.21C8.68262 61.0433 8.72428 60.905 8.79762 60.795C8.87095 60.685 8.96428 60.5967 9.07762 60.53C9.19095 60.4633 9.31762 60.4167 9.45762 60.39C9.60095 60.36 9.74428 60.345 9.88762 60.345C10.0176 60.345 10.1493 60.355 10.2826 60.375C10.416 60.3917 10.5376 60.4267 10.6476 60.48C10.7576 60.5333 10.8476 60.6083 10.9176 60.705C10.9876 60.7983 11.0226 60.9233 11.0226 61.08V62.425C11.0226 62.5417 11.0293 62.6533 11.0426 62.76C11.056 62.8667 11.0793 62.9467 11.1126 63H10.3926C10.3793 62.96 10.3676 62.92 10.3576 62.88C10.351 62.8367 10.346 62.7933 10.3426 62.75C10.2293 62.8667 10.096 62.9483 9.94262 62.995C9.78928 63.0417 9.63262 63.065 9.47262 63.065C9.34928 63.065 9.23428 63.05 9.12762 63.02C9.02095 62.99 8.92762 62.9433 8.84762 62.88C8.76762 62.8167 8.70428 62.7367 8.65762 62.64C8.61428 62.5433 8.59262 62.4283 8.59262 62.295C8.59262 62.1483 8.61762 62.0283 8.66762 61.935C8.72095 61.8383 8.78762 61.7617 8.86762 61.705C8.95095 61.6483 9.04428 61.6067 9.14762 61.58C9.25428 61.55 9.36095 61.5267 9.46762 61.51C9.57428 61.4933 9.67928 61.48 9.78262 61.47C9.88595 61.46 9.97762 61.445 10.0576 61.425C10.1376 61.405 10.201 61.3767 10.2476 61.34C10.2943 61.3 10.316 61.2433 10.3126 61.17C10.3126 61.0933 10.2993 61.0333 10.2726 60.99C10.2493 60.9433 10.216 60.9083 10.1726 60.885C10.1326 60.8583 10.0843 60.8417 10.0276 60.835C9.97428 60.825 9.91595 60.82 9.85262 60.82C9.71262 60.82 9.60262 60.85 9.52262 60.91C9.44262 60.97 9.39595 61.07 9.38262 61.21H8.67262ZM10.3126 61.735C10.2826 61.7617 10.2443 61.7833 10.1976 61.8C10.1543 61.8133 10.106 61.825 10.0526 61.835C10.0026 61.845 9.94928 61.8533 9.89262 61.86C9.83595 61.8667 9.77928 61.875 9.72262 61.885C9.66928 61.895 9.61595 61.9083 9.56262 61.925C9.51262 61.9417 9.46762 61.965 9.42762 61.995C9.39095 62.0217 9.36095 62.0567 9.33762 62.1C9.31428 62.1433 9.30262 62.1983 9.30262 62.265C9.30262 62.3283 9.31428 62.3817 9.33762 62.425C9.36095 62.4683 9.39262 62.5033 9.43262 62.53C9.47262 62.5533 9.51928 62.57 9.57262 62.58C9.62595 62.59 9.68095 62.595 9.73762 62.595C9.87762 62.595 9.98595 62.5717 10.0626 62.525C10.1393 62.4783 10.196 62.4233 10.2326 62.36C10.2693 62.2933 10.291 62.2267 10.2976 62.16C10.3076 62.0933 10.3126 62.04 10.3126 62V61.735ZM12.4737 60.415V59.64H11.7637V60.415H11.3337V60.89H11.7637V62.415C11.7637 62.545 11.7854 62.65 11.8287 62.73C11.872 62.81 11.9304 62.8717 12.0037 62.915C12.0804 62.9583 12.167 62.9867 12.2637 63C12.3637 63.0167 12.4687 63.025 12.5787 63.025C12.6487 63.025 12.7204 63.0233 12.7937 63.02C12.867 63.0167 12.9337 63.01 12.9937 63V62.45C12.9604 62.4567 12.9254 62.4617 12.8887 62.465C12.852 62.4683 12.8137 62.47 12.7737 62.47C12.6537 62.47 12.5737 62.45 12.5337 62.41C12.4937 62.37 12.4737 62.29 12.4737 62.17V60.89H12.9937V60.415H12.4737ZM15.0715 61.43H13.9165C13.9199 61.38 13.9299 61.3233 13.9465 61.26C13.9665 61.1967 13.9982 61.1367 14.0415 61.08C14.0882 61.0233 14.1482 60.9767 14.2215 60.94C14.2982 60.9 14.3932 60.88 14.5065 60.88C14.6799 60.88 14.8082 60.9267 14.8915 61.02C14.9782 61.1133 15.0382 61.25 15.0715 61.43ZM13.9165 61.88H15.7815C15.7949 61.68 15.7782 61.4883 15.7315 61.305C15.6849 61.1217 15.6082 60.9583 15.5015 60.815C15.3982 60.6717 15.2649 60.5583 15.1015 60.475C14.9382 60.3883 14.7465 60.345 14.5265 60.345C14.3299 60.345 14.1499 60.38 13.9865 60.45C13.8265 60.52 13.6882 60.6167 13.5715 60.74C13.4549 60.86 13.3649 61.0033 13.3015 61.17C13.2382 61.3367 13.2065 61.5167 13.2065 61.71C13.2065 61.91 13.2365 62.0933 13.2965 62.26C13.3599 62.4267 13.4482 62.57 13.5615 62.69C13.6749 62.81 13.8132 62.9033 13.9765 62.97C14.1399 63.0333 14.3232 63.065 14.5265 63.065C14.8199 63.065 15.0699 62.9983 15.2765 62.865C15.4832 62.7317 15.6365 62.51 15.7365 62.2H15.1115C15.0882 62.28 15.0249 62.3567 14.9215 62.43C14.8182 62.5 14.6949 62.535 14.5515 62.535C14.3515 62.535 14.1982 62.4833 14.0915 62.38C13.9849 62.2767 13.9265 62.11 13.9165 61.88ZM18.0376 61.7C18.0376 61.8067 18.0276 61.91 18.0076 62.01C17.9876 62.11 17.9543 62.2 17.9076 62.28C17.861 62.3567 17.7976 62.4183 17.7176 62.465C17.641 62.5117 17.5443 62.535 17.4276 62.535C17.3176 62.535 17.2226 62.5117 17.1426 62.465C17.066 62.415 17.001 62.3517 16.9476 62.275C16.8976 62.195 16.861 62.105 16.8376 62.005C16.8143 61.905 16.8026 61.805 16.8026 61.705C16.8026 61.5983 16.8126 61.4967 16.8326 61.4C16.856 61.3 16.891 61.2117 16.9376 61.135C16.9876 61.0583 17.0526 60.9967 17.1326 60.95C17.2126 60.9033 17.311 60.88 17.4276 60.88C17.5443 60.88 17.641 60.9033 17.7176 60.95C17.7943 60.9967 17.856 61.0583 17.9026 61.135C17.9526 61.2083 17.9876 61.295 18.0076 61.395C18.0276 61.4917 18.0376 61.5933 18.0376 61.7ZM18.0476 62.67V63H18.7226V59.43H18.0126V60.73H18.0026C17.9226 60.6033 17.8126 60.5083 17.6726 60.445C17.536 60.3783 17.391 60.345 17.2376 60.345C17.0476 60.345 16.881 60.3833 16.7376 60.46C16.5943 60.5333 16.4743 60.6317 16.3776 60.755C16.2843 60.8783 16.2126 61.0217 16.1626 61.185C16.116 61.345 16.0926 61.5117 16.0926 61.685C16.0926 61.865 16.116 62.0383 16.1626 62.205C16.2126 62.3717 16.2843 62.52 16.3776 62.65C16.4743 62.7767 16.596 62.8783 16.7426 62.955C16.8893 63.0283 17.0593 63.065 17.2526 63.065C17.4226 63.065 17.5743 63.035 17.7076 62.975C17.8443 62.9117 17.9543 62.81 18.0376 62.67H18.0476ZM22.5459 61.71C22.5459 61.8167 22.5342 61.92 22.5109 62.02C22.4875 62.12 22.4509 62.2083 22.4009 62.285C22.3509 62.3617 22.2875 62.4233 22.2109 62.47C22.1375 62.5133 22.0475 62.535 21.9409 62.535C21.8375 62.535 21.7475 62.5133 21.6709 62.47C21.5942 62.4233 21.5309 62.3617 21.4809 62.285C21.4309 62.2083 21.3942 62.12 21.3709 62.02C21.3475 61.92 21.3359 61.8167 21.3359 61.71C21.3359 61.6 21.3475 61.495 21.3709 61.395C21.3942 61.295 21.4309 61.2067 21.4809 61.13C21.5309 61.0533 21.5942 60.9933 21.6709 60.95C21.7475 60.9033 21.8375 60.88 21.9409 60.88C22.0475 60.88 22.1375 60.9033 22.2109 60.95C22.2875 60.9933 22.3509 61.0533 22.4009 61.13C22.4509 61.2067 22.4875 61.295 22.5109 61.395C22.5342 61.495 22.5459 61.6 22.5459 61.71ZM20.6509 59.43V63H21.3259V62.67H21.3359C21.4125 62.8133 21.5259 62.915 21.6759 62.975C21.8259 63.035 21.9959 63.065 22.1859 63.065C22.3159 63.065 22.4442 63.0383 22.5709 62.985C22.6975 62.9317 22.8109 62.85 22.9109 62.74C23.0142 62.63 23.0975 62.49 23.1609 62.32C23.2242 62.1467 23.2559 61.9417 23.2559 61.705C23.2559 61.4683 23.2242 61.265 23.1609 61.095C23.0975 60.9217 23.0142 60.78 22.9109 60.67C22.8109 60.56 22.6975 60.4783 22.5709 60.425C22.4442 60.3717 22.3159 60.345 22.1859 60.345C22.0259 60.345 21.8709 60.3767 21.7209 60.44C21.5742 60.5 21.4575 60.5967 21.3709 60.73H21.3609V59.43H20.6509ZM24.9825 63.32L26.0625 60.415H25.3275L24.7625 62.185H24.7525L24.1675 60.415H23.4125L24.3175 62.84C24.3375 62.89 24.3475 62.9433 24.3475 63C24.3475 63.0767 24.3242 63.1467 24.2775 63.21C24.2342 63.2733 24.1658 63.31 24.0725 63.32C24.0025 63.3233 23.9325 63.3217 23.8625 63.315C23.7925 63.3083 23.7242 63.3017 23.6575 63.295V63.88C23.7308 63.8867 23.8025 63.8917 23.8725 63.895C23.9458 63.9017 24.0192 63.905 24.0925 63.905C24.3358 63.905 24.5258 63.86 24.6625 63.77C24.7992 63.68 24.9058 63.53 24.9825 63.32ZM27.7669 59.43V63H30.2919V62.34H28.5519V59.43H27.7669ZM30.6257 61.21C30.6357 61.0433 30.6774 60.905 30.7507 60.795C30.8241 60.685 30.9174 60.5967 31.0307 60.53C31.1441 60.4633 31.2707 60.4167 31.4107 60.39C31.5541 60.36 31.6974 60.345 31.8407 60.345C31.9707 60.345 32.1024 60.355 32.2357 60.375C32.3691 60.3917 32.4907 60.4267 32.6007 60.48C32.7107 60.5333 32.8007 60.6083 32.8707 60.705C32.9407 60.7983 32.9757 60.9233 32.9757 61.08V62.425C32.9757 62.5417 32.9824 62.6533 32.9957 62.76C33.0091 62.8667 33.0324 62.9467 33.0657 63H32.3457C32.3324 62.96 32.3207 62.92 32.3107 62.88C32.3041 62.8367 32.2991 62.7933 32.2957 62.75C32.1824 62.8667 32.0491 62.9483 31.8957 62.995C31.7424 63.0417 31.5857 63.065 31.4257 63.065C31.3024 63.065 31.1874 63.05 31.0807 63.02C30.9741 62.99 30.8807 62.9433 30.8007 62.88C30.7207 62.8167 30.6574 62.7367 30.6107 62.64C30.5674 62.5433 30.5457 62.4283 30.5457 62.295C30.5457 62.1483 30.5707 62.0283 30.6207 61.935C30.6741 61.8383 30.7407 61.7617 30.8207 61.705C30.9041 61.6483 30.9974 61.6067 31.1007 61.58C31.2074 61.55 31.3141 61.5267 31.4207 61.51C31.5274 61.4933 31.6324 61.48 31.7357 61.47C31.8391 61.46 31.9307 61.445 32.0107 61.425C32.0907 61.405 32.1541 61.3767 32.2007 61.34C32.2474 61.3 32.2691 61.2433 32.2657 61.17C32.2657 61.0933 32.2524 61.0333 32.2257 60.99C32.2024 60.9433 32.1691 60.9083 32.1257 60.885C32.0857 60.8583 32.0374 60.8417 31.9807 60.835C31.9274 60.825 31.8691 60.82 31.8057 60.82C31.6657 60.82 31.5557 60.85 31.4757 60.91C31.3957 60.97 31.3491 61.07 31.3357 61.21H30.6257ZM32.2657 61.735C32.2357 61.7617 32.1974 61.7833 32.1507 61.8C32.1074 61.8133 32.0591 61.825 32.0057 61.835C31.9557 61.845 31.9024 61.8533 31.8457 61.86C31.7891 61.8667 31.7324 61.875 31.6757 61.885C31.6224 61.895 31.5691 61.9083 31.5157 61.925C31.4657 61.9417 31.4207 61.965 31.3807 61.995C31.3441 62.0217 31.3141 62.0567 31.2907 62.1C31.2674 62.1433 31.2557 62.1983 31.2557 62.265C31.2557 62.3283 31.2674 62.3817 31.2907 62.425C31.3141 62.4683 31.3457 62.5033 31.3857 62.53C31.4257 62.5533 31.4724 62.57 31.5257 62.58C31.5791 62.59 31.6341 62.595 31.6907 62.595C31.8307 62.595 31.9391 62.5717 32.0157 62.525C32.0924 62.4783 32.1491 62.4233 32.1857 62.36C32.2224 62.2933 32.2441 62.2267 32.2507 62.16C32.2607 62.0933 32.2657 62.04 32.2657 62V61.735ZM34.7318 62.39C34.6218 62.39 34.5302 62.3667 34.4568 62.32C34.3835 62.2733 34.3235 62.2133 34.2768 62.14C34.2335 62.0667 34.2018 61.985 34.1818 61.895C34.1652 61.8017 34.1568 61.7083 34.1568 61.615C34.1568 61.5183 34.1668 61.4267 34.1868 61.34C34.2102 61.25 34.2452 61.1717 34.2918 61.105C34.3418 61.035 34.4018 60.98 34.4718 60.94C34.5452 60.9 34.6318 60.88 34.7318 60.88C34.8485 60.88 34.9452 60.9017 35.0218 60.945C35.0985 60.9883 35.1602 61.0467 35.2068 61.12C35.2535 61.1933 35.2868 61.2783 35.3068 61.375C35.3268 61.4683 35.3368 61.5683 35.3368 61.675C35.3368 61.7683 35.3235 61.8583 35.2968 61.945C35.2735 62.0283 35.2368 62.1033 35.1868 62.17C35.1368 62.2367 35.0735 62.29 34.9968 62.33C34.9202 62.37 34.8318 62.39 34.7318 62.39ZM36.0118 62.835V60.415H35.3368V60.76H35.3268C35.2402 60.61 35.1318 60.5033 35.0018 60.44C34.8752 60.3767 34.7268 60.345 34.5568 60.345C34.3768 60.345 34.2168 60.38 34.0768 60.45C33.9402 60.52 33.8252 60.615 33.7318 60.735C33.6385 60.8517 33.5668 60.9883 33.5168 61.145C33.4702 61.2983 33.4468 61.4583 33.4468 61.625C33.4468 61.8017 33.4668 61.97 33.5068 62.13C33.5502 62.2867 33.6168 62.425 33.7068 62.545C33.7968 62.6617 33.9118 62.755 34.0518 62.825C34.1918 62.8917 34.3585 62.925 34.5518 62.925C34.7085 62.925 34.8568 62.8933 34.9968 62.83C35.1402 62.7633 35.2502 62.6617 35.3268 62.525H35.3368V62.865C35.3402 63.0483 35.2952 63.2 35.2018 63.32C35.1118 63.44 34.9668 63.5 34.7668 63.5C34.6402 63.5 34.5285 63.4733 34.4318 63.42C34.3352 63.37 34.2702 63.2783 34.2368 63.145H33.5318C33.5418 63.2917 33.5818 63.4167 33.6518 63.52C33.7252 63.6267 33.8152 63.7133 33.9218 63.78C34.0318 63.8467 34.1518 63.895 34.2818 63.925C34.4152 63.9583 34.5452 63.975 34.6718 63.975C34.9685 63.975 35.2052 63.935 35.3818 63.855C35.5585 63.775 35.6935 63.6767 35.7868 63.56C35.8802 63.4467 35.9402 63.3233 35.9668 63.19C35.9968 63.0567 36.0118 62.9383 36.0118 62.835ZM37.2135 61.71C37.2135 61.6067 37.2235 61.505 37.2435 61.405C37.2635 61.305 37.2968 61.2167 37.3435 61.14C37.3935 61.0633 37.4585 61.0017 37.5385 60.955C37.6185 60.905 37.7185 60.88 37.8385 60.88C37.9585 60.88 38.0585 60.905 38.1385 60.955C38.2218 61.0017 38.2868 61.0633 38.3335 61.14C38.3835 61.2167 38.4185 61.305 38.4385 61.405C38.4585 61.505 38.4685 61.6067 38.4685 61.71C38.4685 61.8133 38.4585 61.915 38.4385 62.015C38.4185 62.1117 38.3835 62.2 38.3335 62.28C38.2868 62.3567 38.2218 62.4183 38.1385 62.465C38.0585 62.5117 37.9585 62.535 37.8385 62.535C37.7185 62.535 37.6185 62.5117 37.5385 62.465C37.4585 62.4183 37.3935 62.3567 37.3435 62.28C37.2968 62.2 37.2635 62.1117 37.2435 62.015C37.2235 61.915 37.2135 61.8133 37.2135 61.71ZM36.5035 61.71C36.5035 61.9167 36.5351 62.1033 36.5985 62.27C36.6618 62.4367 36.7518 62.58 36.8685 62.7C36.9851 62.8167 37.1251 62.9067 37.2885 62.97C37.4518 63.0333 37.6351 63.065 37.8385 63.065C38.0418 63.065 38.2251 63.0333 38.3885 62.97C38.5551 62.9067 38.6968 62.8167 38.8135 62.7C38.9301 62.58 39.0201 62.4367 39.0835 62.27C39.1468 62.1033 39.1785 61.9167 39.1785 61.71C39.1785 61.5033 39.1468 61.3167 39.0835 61.15C39.0201 60.98 38.9301 60.8367 38.8135 60.72C38.6968 60.6 38.5551 60.5083 38.3885 60.445C38.2251 60.3783 38.0418 60.345 37.8385 60.345C37.6351 60.345 37.4518 60.3783 37.2885 60.445C37.1251 60.5083 36.9851 60.6 36.8685 60.72C36.7518 60.8367 36.6618 60.98 36.5985 61.15C36.5351 61.3167 36.5035 61.5033 36.5035 61.71ZM40.5401 60.415V59.64H39.8301V60.415H39.4001V60.89H39.8301V62.415C39.8301 62.545 39.8518 62.65 39.8951 62.73C39.9385 62.81 39.9968 62.8717 40.0701 62.915C40.1468 62.9583 40.2335 62.9867 40.3301 63C40.4301 63.0167 40.5351 63.025 40.6451 63.025C40.7151 63.025 40.7868 63.0233 40.8601 63.02C40.9335 63.0167 41.0001 63.01 41.0601 63V62.45C41.0268 62.4567 40.9918 62.4617 40.9551 62.465C40.9185 62.4683 40.8801 62.47 40.8401 62.47C40.7201 62.47 40.6401 62.45 40.6001 62.41C40.5601 62.37 40.5401 62.29 40.5401 62.17V60.89H41.0601V60.415H40.5401ZM43.6495 62.34V60.09H44.2095C44.4029 60.09 44.5645 60.1183 44.6945 60.175C44.8279 60.2283 44.9345 60.3067 45.0145 60.41C45.0945 60.5133 45.1512 60.6383 45.1845 60.785C45.2212 60.9283 45.2395 61.09 45.2395 61.27C45.2395 61.4667 45.2145 61.6333 45.1645 61.77C45.1145 61.9067 45.0479 62.0183 44.9645 62.105C44.8812 62.1883 44.7862 62.2483 44.6795 62.285C44.5729 62.3217 44.4629 62.34 44.3495 62.34H43.6495ZM42.8645 59.43V63H44.4045C44.6779 63 44.9145 62.955 45.1145 62.865C45.3179 62.7717 45.4862 62.645 45.6195 62.485C45.7562 62.325 45.8579 62.135 45.9245 61.915C45.9912 61.695 46.0245 61.455 46.0245 61.195C46.0245 60.8983 45.9829 60.64 45.8995 60.42C45.8195 60.2 45.7062 60.0167 45.5595 59.87C45.4162 59.7233 45.2445 59.6133 45.0445 59.54C44.8479 59.4667 44.6345 59.43 44.4045 59.43H42.8645ZM48.2356 61.43H47.0806C47.0839 61.38 47.0939 61.3233 47.1106 61.26C47.1306 61.1967 47.1623 61.1367 47.2056 61.08C47.2523 61.0233 47.3123 60.9767 47.3856 60.94C47.4623 60.9 47.5573 60.88 47.6706 60.88C47.8439 60.88 47.9723 60.9267 48.0556 61.02C48.1423 61.1133 48.2023 61.25 48.2356 61.43ZM47.0806 61.88H48.9456C48.9589 61.68 48.9423 61.4883 48.8956 61.305C48.8489 61.1217 48.7723 60.9583 48.6656 60.815C48.5623 60.6717 48.4289 60.5583 48.2656 60.475C48.1023 60.3883 47.9106 60.345 47.6906 60.345C47.4939 60.345 47.3139 60.38 47.1506 60.45C46.9906 60.52 46.8523 60.6167 46.7356 60.74C46.6189 60.86 46.5289 61.0033 46.4656 61.17C46.4023 61.3367 46.3706 61.5167 46.3706 61.71C46.3706 61.91 46.4006 62.0933 46.4606 62.26C46.5239 62.4267 46.6123 62.57 46.7256 62.69C46.8389 62.81 46.9773 62.9033 47.1406 62.97C47.3039 63.0333 47.4873 63.065 47.6906 63.065C47.9839 63.065 48.2339 62.9983 48.4406 62.865C48.6473 62.7317 48.8006 62.51 48.9006 62.2H48.2756C48.2523 62.28 48.1889 62.3567 48.0856 62.43C47.9823 62.5 47.8589 62.535 47.7156 62.535C47.5156 62.535 47.3623 62.4833 47.2556 62.38C47.1489 62.2767 47.0906 62.11 47.0806 61.88ZM49.9167 62.16H49.2417C49.2483 62.3333 49.2867 62.4783 49.3567 62.595C49.43 62.7083 49.5217 62.8 49.6317 62.87C49.745 62.94 49.8733 62.99 50.0167 63.02C50.16 63.05 50.3067 63.065 50.4567 63.065C50.6033 63.065 50.7467 63.05 50.8867 63.02C51.03 62.9933 51.1567 62.945 51.2667 62.875C51.3767 62.805 51.465 62.7133 51.5317 62.6C51.6017 62.4833 51.6367 62.34 51.6367 62.17C51.6367 62.05 51.6133 61.95 51.5667 61.87C51.52 61.7867 51.4583 61.7183 51.3817 61.665C51.305 61.6083 51.2167 61.5633 51.1167 61.53C51.02 61.4967 50.92 61.4683 50.8167 61.445C50.7167 61.4217 50.6183 61.4 50.5217 61.38C50.425 61.36 50.3383 61.3383 50.2617 61.315C50.1883 61.2883 50.1283 61.255 50.0817 61.215C50.035 61.175 50.0117 61.1233 50.0117 61.06C50.0117 61.0067 50.025 60.965 50.0517 60.935C50.0783 60.9017 50.11 60.8767 50.1467 60.86C50.1867 60.8433 50.23 60.8333 50.2767 60.83C50.3233 60.8233 50.3667 60.82 50.4067 60.82C50.5333 60.82 50.6433 60.845 50.7367 60.895C50.83 60.9417 50.8817 61.0333 50.8917 61.17H51.5667C51.5533 61.01 51.5117 60.8783 51.4417 60.775C51.375 60.6683 51.29 60.5833 51.1867 60.52C51.0833 60.4567 50.965 60.4117 50.8317 60.385C50.7017 60.3583 50.5667 60.345 50.4267 60.345C50.2867 60.345 50.15 60.3583 50.0167 60.385C49.8833 60.4083 49.7633 60.4517 49.6567 60.515C49.55 60.575 49.4633 60.6583 49.3967 60.765C49.3333 60.8717 49.3017 61.0083 49.3017 61.175C49.3017 61.2883 49.325 61.385 49.3717 61.465C49.4183 61.5417 49.48 61.6067 49.5567 61.66C49.6333 61.71 49.72 61.7517 49.8167 61.785C49.9167 61.815 50.0183 61.8417 50.1217 61.865C50.375 61.9183 50.5717 61.9717 50.7117 62.025C50.855 62.0783 50.9267 62.1583 50.9267 62.265C50.9267 62.3283 50.9117 62.3817 50.8817 62.425C50.8517 62.465 50.8133 62.4983 50.7667 62.525C50.7233 62.5483 50.6733 62.5667 50.6167 62.58C50.5633 62.59 50.5117 62.595 50.4617 62.595C50.3917 62.595 50.3233 62.5867 50.2567 62.57C50.1933 62.5533 50.1367 62.5283 50.0867 62.495C50.0367 62.4583 49.995 62.4133 49.9617 62.36C49.9317 62.3033 49.9167 62.2367 49.9167 62.16ZM52.7822 60.015V59.43H52.0722V60.015H52.7822ZM52.0722 60.415V63H52.7822V60.415H52.0722ZM54.5463 62.39C54.4363 62.39 54.3446 62.3667 54.2713 62.32C54.198 62.2733 54.138 62.2133 54.0913 62.14C54.048 62.0667 54.0163 61.985 53.9963 61.895C53.9796 61.8017 53.9713 61.7083 53.9713 61.615C53.9713 61.5183 53.9813 61.4267 54.0013 61.34C54.0246 61.25 54.0596 61.1717 54.1063 61.105C54.1563 61.035 54.2163 60.98 54.2863 60.94C54.3596 60.9 54.4463 60.88 54.5463 60.88C54.663 60.88 54.7596 60.9017 54.8363 60.945C54.913 60.9883 54.9746 61.0467 55.0213 61.12C55.068 61.1933 55.1013 61.2783 55.1213 61.375C55.1413 61.4683 55.1513 61.5683 55.1513 61.675C55.1513 61.7683 55.138 61.8583 55.1113 61.945C55.088 62.0283 55.0513 62.1033 55.0013 62.17C54.9513 62.2367 54.888 62.29 54.8113 62.33C54.7346 62.37 54.6463 62.39 54.5463 62.39ZM55.8263 62.835V60.415H55.1513V60.76H55.1413C55.0546 60.61 54.9463 60.5033 54.8163 60.44C54.6896 60.3767 54.5413 60.345 54.3713 60.345C54.1913 60.345 54.0313 60.38 53.8913 60.45C53.7546 60.52 53.6396 60.615 53.5463 60.735C53.453 60.8517 53.3813 60.9883 53.3313 61.145C53.2846 61.2983 53.2613 61.4583 53.2613 61.625C53.2613 61.8017 53.2813 61.97 53.3213 62.13C53.3646 62.2867 53.4313 62.425 53.5213 62.545C53.6113 62.6617 53.7263 62.755 53.8663 62.825C54.0063 62.8917 54.173 62.925 54.3663 62.925C54.523 62.925 54.6713 62.8933 54.8113 62.83C54.9546 62.7633 55.0646 62.6617 55.1413 62.525H55.1513V62.865C55.1546 63.0483 55.1096 63.2 55.0163 63.32C54.9263 63.44 54.7813 63.5 54.5813 63.5C54.4546 63.5 54.343 63.4733 54.2463 63.42C54.1496 63.37 54.0846 63.2783 54.0513 63.145H53.3463C53.3563 63.2917 53.3963 63.4167 53.4663 63.52C53.5396 63.6267 53.6296 63.7133 53.7363 63.78C53.8463 63.8467 53.9663 63.895 54.0963 63.925C54.2296 63.9583 54.3596 63.975 54.4863 63.975C54.783 63.975 55.0196 63.935 55.1963 63.855C55.373 63.775 55.508 63.6767 55.6013 63.56C55.6946 63.4467 55.7546 63.3233 55.7813 63.19C55.8113 63.0567 55.8263 62.9383 55.8263 62.835ZM56.3979 60.415V63H57.1079V61.645C57.1079 61.3817 57.1513 61.1933 57.2379 61.08C57.3246 60.9633 57.4646 60.905 57.6579 60.905C57.8279 60.905 57.9463 60.9583 58.0129 61.065C58.0796 61.1683 58.1129 61.3267 58.1129 61.54V63H58.8229V61.41C58.8229 61.25 58.8079 61.105 58.7779 60.975C58.7513 60.8417 58.7029 60.73 58.6329 60.64C58.5629 60.5467 58.4663 60.475 58.3429 60.425C58.2229 60.3717 58.0679 60.345 57.8779 60.345C57.7279 60.345 57.5813 60.38 57.4379 60.45C57.2946 60.5167 57.1779 60.625 57.0879 60.775H57.0729V60.415H56.3979Z" fill="white"/>
</g>
<defs>
<clipPath id="clip0">
<rect width="48" height="60" fill="white"/>
</clipPath>
</defs>
</svg>
