<svg width="64" height="80" viewBox="0 0 64 80" fill="none" xmlns="http://www.w3.org/2000/svg">
<path d="M5 29H7.121L11.008 59.128C11.0391 59.3691 11.157 59.5906 11.3396 59.7511C11.5221 59.9116 11.7569 60.0001 12 60H35.54C36.1007 60.6285 36.7879 61.1316 37.5564 61.4762C38.325 61.8209 39.1577 61.9994 40 62H41.566C42.6642 61.9991 43.7473 61.7434 44.73 61.253C45.4353 60.9024 46.2123 60.72 47 60.72C47.7877 60.72 48.5647 60.9024 49.27 61.253C50.2527 61.7434 51.3358 61.9991 52.434 62H54C55.5908 61.9984 57.116 61.3658 58.2409 60.2409C59.3658 59.116 59.9984 57.5908 60 56V50C59.9984 48.4092 59.3658 46.884 58.2409 45.7591C57.116 44.6342 55.5908 44.0016 54 44H52.434C51.3358 44.0009 50.2527 44.2566 49.27 44.747C48.5647 45.0976 47.7877 45.28 47 45.28C46.2123 45.28 45.4353 45.0976 44.73 44.747C44.1596 44.4671 43.5542 44.2653 42.93 44.147L44.879 29H47C47.2652 29 47.5196 28.8946 47.7071 28.7071C47.8946 28.5196 48 28.2652 48 28V24C48 23.7348 47.8946 23.4804 47.7071 23.2929C47.5196 23.1054 47.2652 23 47 23H43V20C42.9999 19.7348 42.8946 19.4805 42.707 19.293L38 14.586V11.48L39.516 10.268L42.105 15.447L43.895 14.553L41.113 8.99L42.35 8H46C46.2652 8 46.5196 7.89464 46.7071 7.70711C46.8946 7.51957 47 7.26522 47 7V3C47 2.73478 46.8946 2.48043 46.7071 2.29289C46.5196 2.10536 46.2652 2 46 2H36C33.6139 2.00291 31.3265 2.95206 29.6393 4.63925C27.9521 6.32645 27.0029 8.61395 27 11C27 11.2652 27.1054 11.5196 27.2929 11.7071C27.4804 11.8946 27.7348 12 28 12H30V14.586L27.293 17.293C27.1054 17.4805 27.0001 17.7348 27 18V23H25V15C24.9985 14.8762 24.9737 14.7537 24.927 14.639C24.9087 14.6001 24.888 14.5623 24.865 14.526C24.8409 14.4736 24.8129 14.4231 24.781 14.375L21 9.65V3C21 2.73478 20.8946 2.48043 20.7071 2.29289C20.5196 2.10536 20.2652 2 20 2H14C13.7348 2 13.4804 2.10536 13.2929 2.29289C13.1054 2.48043 13 2.73478 13 3V9.65L9.219 14.375C9.18714 14.4231 9.15905 14.4736 9.135 14.526C9.11201 14.5623 9.0913 14.6001 9.073 14.639C9.0263 14.7537 9.00154 14.8762 9 15V23H5C4.73478 23 4.48043 23.1054 4.29289 23.2929C4.10536 23.4804 4 23.7348 4 24V28C4 28.2652 4.10536 28.5196 4.29289 28.7071C4.48043 28.8946 4.73478 29 5 29ZM54 60H52.434C51.6464 59.9989 50.8698 59.8155 50.165 59.464C49.1815 58.9753 48.0982 58.7211 47 58.7211C45.9018 58.7211 44.8185 58.9753 43.835 59.464C43.1302 59.8155 42.3536 59.9989 41.566 60H40C38.9391 60 37.9217 59.5786 37.1716 58.8284C36.4214 58.0783 36 57.0609 36 56V54.46C37.0967 55.4509 38.522 55.9996 40 56H41.566C42.6642 55.9991 43.7473 55.7434 44.73 55.253C45.4353 54.9024 46.2123 54.72 47 54.72C47.7877 54.72 48.5647 54.9024 49.27 55.253C50.2527 55.7434 51.3358 55.9991 52.434 56H54C55.478 55.9996 56.9033 55.4509 58 54.46V56C58 57.0609 57.5786 58.0783 56.8284 58.8284C56.0783 59.5786 55.0609 60 54 60ZM50.165 46.536C50.8698 46.1845 51.6464 46.0011 52.434 46H54C55.0609 46 56.0783 46.4214 56.8284 47.1716C57.5786 47.9217 58 48.9391 58 50C58 51.0609 57.5786 52.0783 56.8284 52.8284C56.0783 53.5786 55.0609 54 54 54H52.434C51.6464 53.9989 50.8698 53.8155 50.165 53.464C49.1815 52.9753 48.0982 52.7211 47 52.7211C45.9018 52.7211 44.8185 52.9753 43.835 53.464C43.1302 53.8155 42.3536 53.9989 41.566 54H40C38.9391 54 37.9217 53.5786 37.1716 52.8284C36.4214 52.0783 36 51.0609 36 50C36 48.9391 36.4214 47.9217 37.1716 47.1716C37.9217 46.4214 38.9391 46 40 46H41.566C42.3536 46.0011 43.1302 46.1845 43.835 46.536C44.8186 47.0244 45.9018 47.2785 47 47.2785C48.0982 47.2785 49.1814 47.0244 50.165 46.536ZM40.927 44H40C38.4092 44.0016 36.884 44.6342 35.7591 45.7591C34.6342 46.884 34.0016 48.4092 34 50V56C34.0017 56.6818 34.1201 57.3582 34.35 58H12.879L9.137 29H14V47C14 48.0609 14.4214 49.0783 15.1716 49.8284C15.9217 50.5786 16.9391 51 18 51H28C29.0609 51 30.0783 50.5786 30.8284 49.8284C31.5786 49.0783 32 48.0609 32 47V38.618L34.612 39.924C34.989 40.11 35.399 40.2197 35.8185 40.2466C36.238 40.2735 36.6587 40.2172 37.0563 40.0808C37.4539 39.9445 37.8207 39.7308 38.1354 39.4521C38.4501 39.1734 38.7065 38.8352 38.89 38.457C39.0818 38.0768 39.1967 37.6624 39.2281 37.2377C39.2595 36.813 39.2068 36.3863 39.073 35.982C38.9411 35.5776 38.7298 35.2037 38.4517 34.8819C38.1735 34.5601 37.834 34.297 37.453 34.108L32 31.382V29H42.863L40.927 44ZM28 25H30V32C29.999 32.1867 30.0502 32.3699 30.148 32.529C30.2457 32.688 30.386 32.8166 30.553 32.9L36.553 35.9C36.6978 35.9714 36.8269 36.0711 36.9325 36.1932C37.0381 36.3153 37.1182 36.4574 37.168 36.611C37.2193 36.7759 37.2369 36.9494 37.2197 37.1212C37.2025 37.293 37.1509 37.4596 37.068 37.611C36.9995 37.7485 36.9045 37.8711 36.7885 37.9719C36.6725 38.0726 36.5378 38.1494 36.392 38.198C36.2463 38.2466 36.0924 38.266 35.9391 38.255C35.7859 38.244 35.6363 38.2029 35.499 38.134L31.439 36.104C31.2867 36.0296 31.1181 35.9951 30.9488 36.0038C30.7796 36.0125 30.6153 36.064 30.4714 36.1536C30.3276 36.2432 30.2088 36.3678 30.1264 36.5159C30.0439 36.6639 30.0004 36.8305 30 37V47C30 47.5304 29.7893 48.0391 29.4142 48.4142C29.0391 48.7893 28.5304 49 28 49V40H26V49H24V40H22V49H20V40H18V49C17.4696 49 16.9609 48.7893 16.5858 48.4142C16.2107 48.0391 16 47.5304 16 47V25H28ZM46 27H32V25H46V27ZM45 6H43V4H45V6ZM36 4H41V6.52L36.649 10H29.071C29.3137 8.33482 30.1471 6.81247 31.4192 5.71092C32.6914 4.60936 34.3172 4.00209 36 4ZM36 12V14H32V12H36ZM29 18.414L31.414 16H36.586L41 20.414V23H29V18.414ZM14.48 11H19.52L21.92 14H12.08L14.48 11ZM15 4H19V9H15V4ZM11 16H23V23H11V16ZM6 25H14V27H6V25Z" fill="white"/>
<path d="M55 48H53V50H55V48Z" fill="white"/>
<path d="M45 48H43V50H45V48Z" fill="white"/>
<path d="M41 49H39V51H41V49Z" fill="white"/>
<path d="M51 49H49V51H51V49Z" fill="white"/>
</svg>
