<svg width="77" height="96" viewBox="0 0 77 96" fill="none" xmlns="http://www.w3.org/2000/svg">
<path d="M73.1136 32.256C79.488 31.3344 67.3536 29.7984 61.824 29.2608C56.2944 28.7232 52.3776 27.7248 63.8976 28.1088C75.4176 28.416 74.2656 26.8032 56.7552 25.344C39.168 23.808 10.2912 25.0368 10.2912 25.0368C-2.07361 24.96 3.22559 36.1728 2.30399 39.4752C1.38239 42.7776 2.68799 45.3888 3.91679 47.4624C5.14559 49.4592 3.60959 49.92 8.29439 51.6864C12.9792 53.4528 22.4256 50.4576 50.6112 49.92C77.4144 49.3824 64.8192 47.232 58.6752 46.6176C52.5312 46.0032 55.2192 45.4656 65.5104 44.928C75.8016 44.4672 64.128 43.3152 65.1264 42.0864C66.2016 40.8576 78.8736 40.8576 69.1968 39.3984C67.3536 39.0912 73.1904 37.3248 68.5824 37.0176C63.9744 36.7104 65.5104 36.0192 71.424 35.7888C77.2608 35.5584 73.344 34.0224 70.0416 33.792C66.816 33.6384 66.7392 33.1776 73.1136 32.256Z" fill="white"/>
</svg>
