<svg width="100" height="125" viewBox="0 0 100 125" fill="none" xmlns="http://www.w3.org/2000/svg">
<path d="M80.567 62.811H67.846H66.313H53.594V50.09H66.313H67.846H80.567V62.811Z" fill="white"/>
<path d="M39.34 35.838H66.313V48.558H53.594H52.063H39.34V35.838Z" fill="white"/>
<path d="M25.089 50.09H37.809H52.063V62.811H39.34H37.809H25.089V50.09Z" fill="white"/>
<path d="M37.809 77.063H10.836V64.342H23.558H37.809V77.063Z" fill="white"/>
<path d="M66.313 77.063H39.34V64.342H52.063H53.594H66.313V77.063Z" fill="white"/>
<path d="M94.818 77.063H67.846V64.342H80.567H82.099H94.818V77.063Z" fill="white"/>
<path d="M94.819 50.09H82.099V62.811H94.819V50.09Z" fill="white"/>
<path d="M82.099 48.558H80.567H67.846V35.838H94.818V48.558H82.099Z" fill="white"/>
<path d="M5.18232 34.9301L30.6098 43.9256L34.8522 31.9335L9.42478 22.938L5.18232 34.9301Z" fill="white"/>
</svg>
