<svg width="45" height="45" viewBox="0 0 45 45" fill="none" xmlns="http://www.w3.org/2000/svg">
<path fill-rule="evenodd" clip-rule="evenodd" d="M36.3403 2.72528C36.3403 0.0899707 36.0844 0.0871582 33.3872 0.0871582H14.4281C11.7338 0.0871582 11.4694 0.0899707 11.4694 2.72528H14.1497V10.994L5.67845 40.0443C5.67845 42.6853 7.86376 44.8228 10.561 44.8228H37.2488C39.9431 44.8228 42.1313 42.6853 42.1313 40.0443L33.7275 10.9097L33.6881 2.72528H36.3403ZM39.2878 38.2668C40.05 40.7531 38.7169 42.3028 35.2603 42.3028H12.8306C8.89033 42.3028 7.92283 40.635 8.80314 38.2668L16.6388 11.1206L16.6078 2.64653H31.0219V11.0531L39.2878 38.2668Z" fill="white"/>
<path fill-rule="evenodd" clip-rule="evenodd" d="M28.2347 16.9622H19.7409L14.5716 34.7034C13.5731 37.9378 13.8966 39.1584 18.5316 39.1584H29.4412C34.0341 39.1584 34.1381 37.7015 33.4041 34.7034L28.2347 16.9622Z" fill="white"/>
</svg>
