<svg width="19" height="19" viewBox="0 0 19 19" fill="none" xmlns="http://www.w3.org/2000/svg">
<path d="M12.2761 1.53299L6.09091 1.53299C4.88235 1.53441 3.72371 2.01519 2.86921 2.86984C2.0147 3.72449 1.53412 4.88321 1.5329 6.09177L1.5329 12.2769C1.53432 13.4855 2.0151 14.6441 2.86975 15.4986C3.7244 16.3531 4.88312 16.8337 6.09168 16.8349H12.2768C13.4854 16.8335 14.644 16.3527 15.4985 15.4981C16.3531 14.6434 16.8336 13.4847 16.8349 12.2762V6.091C16.8334 4.88244 16.3527 3.72381 15.498 2.8693C14.6434 2.01479 13.4846 1.53421 12.2761 1.53299V1.53299ZM15.2958 12.2762C15.2958 12.6727 15.2177 13.0654 15.066 13.4318C14.9142 13.7982 14.6918 14.1311 14.4114 14.4115C14.131 14.6919 13.7981 14.9143 13.4317 15.0661C13.0653 15.2178 12.6726 15.2959 12.2761 15.2959L6.09091 15.2959C5.29015 15.2957 4.52226 14.9775 3.95611 14.4112C3.38996 13.8449 3.07191 13.0769 3.07191 12.2762L3.07191 6.091C3.07211 5.29024 3.39035 4.52235 3.95665 3.9562C4.52294 3.39005 5.29092 3.072 6.09168 3.072L12.2768 3.072C13.0776 3.0722 13.8455 3.39045 14.4116 3.95674C14.9778 4.52303 15.2958 5.29101 15.2958 6.09177L15.2958 12.2769V12.2762Z" fill="white"/>
<path d="M9.18356 5.2262C8.13463 5.22782 7.12915 5.64527 6.38751 6.38705C5.64588 7.12882 5.22862 8.13439 5.2272 9.18332C5.22842 10.2325 5.6457 11.2384 6.38752 11.9804C7.12933 12.7223 8.13514 13.1398 9.18433 13.1412C10.2337 13.14 11.2396 12.7226 11.9816 11.9806C12.7236 11.2386 13.141 10.2326 13.1422 9.18332C13.1406 8.13413 12.7229 7.12841 11.9808 6.38673C11.2387 5.64506 10.2328 5.22798 9.18356 5.22696V5.2262ZM9.18356 11.6022C8.54224 11.6022 7.92718 11.3474 7.4737 10.894C7.02021 10.4405 6.76545 9.82541 6.76545 9.18409C6.76545 8.54276 7.02021 7.92771 7.4737 7.47422C7.92718 7.02074 8.54224 6.76597 9.18356 6.76597C9.82488 6.76597 10.4399 7.02074 10.8934 7.47422C11.3469 7.92771 11.6017 8.54276 11.6017 9.18409C11.6017 9.82541 11.3469 10.4405 10.8934 10.894C10.4399 11.3474 9.82488 11.6022 9.18356 11.6022Z" fill="white"/>
<path d="M13.1491 6.20446C13.6727 6.20446 14.0972 5.77999 14.0972 5.25637C14.0972 4.73276 13.6727 4.30829 13.1491 4.30829C12.6255 4.30829 12.201 4.73276 12.201 5.25637C12.201 5.77999 12.6255 6.20446 13.1491 6.20446Z" fill="white"/>
</svg>
