<svg width="15" height="15" viewBox="0 0 15 15" fill="none" xmlns="http://www.w3.org/2000/svg">
<path d="M8.125 13.125H5.625V5.625H8.125V6.875C8.38818 6.54017 8.72221 6.26773 9.10311 6.07723C9.48401 5.88672 9.90235 5.78287 10.3281 5.77313C11.0727 5.77726 11.7853 6.07651 12.3096 6.60527C12.8339 7.13403 13.1272 7.84912 13.125 8.59375V13.125H10.625V8.90625C10.5766 8.56848 10.4079 8.25955 10.1499 8.0363C9.89183 7.81305 9.56184 7.69052 9.22062 7.69125C9.06791 7.69608 8.91775 7.73171 8.77914 7.796C8.64053 7.86029 8.51635 7.95192 8.41402 8.06539C8.3117 8.17886 8.23336 8.31183 8.18369 8.45632C8.13403 8.60081 8.11406 8.75385 8.125 8.90625V13.125ZM4.375 13.125H1.875V5.625H4.375V13.125ZM3.125 4.375C2.79348 4.375 2.47554 4.2433 2.24112 4.00888C2.0067 3.77446 1.875 3.45652 1.875 3.125C1.875 2.79348 2.0067 2.47554 2.24112 2.24112C2.47554 2.0067 2.79348 1.875 3.125 1.875C3.45652 1.875 3.77446 2.0067 4.00888 2.24112C4.2433 2.47554 4.375 2.79348 4.375 3.125C4.375 3.45652 4.2433 3.77446 4.00888 4.00888C3.77446 4.2433 3.45652 4.375 3.125 4.375Z" fill="white"/>
</svg>
