<svg width="57" height="75" viewBox="0 0 57 75" fill="none" xmlns="http://www.w3.org/2000/svg">
<path d="M54.2589 30L37.3424 8.38499V17.5308H26.0239V17.5662C22.2192 17.6868 19.1218 18.6738 16.583 20.5674C14.2911 18.8514 11.225 17.697 6.78472 17.6772H2.74057V40.9194H19.7699C23.0953 40.7754 25.5999 39.9444 27.5721 38.7162C30.1536 40.998 33.3547 42.2238 37.3436 42.4524V51.615L54.2589 30ZM28.4784 37.3056C26.1995 35.2386 24.7876 32.4906 23.2942 29.58L23.2583 29.5068C21.8259 26.715 20.349 23.8374 18.0285 21.5844C20.3758 20.0148 23.2657 19.2498 26.8282 19.2498L38.9532 19.227V13.1112L52.1704 30L38.9538 46.8876V40.773H37.7112C33.8848 40.6032 30.8644 39.4698 28.4784 37.3056Z" fill="white"/>
</svg>
