<svg width="19" height="20" viewBox="0 0 19 20" fill="none" xmlns="http://www.w3.org/2000/svg">
<path d="M9.19729 16.2726C10.8235 16.2726 12.383 15.6266 13.5329 14.4767C14.6828 13.3268 15.3288 11.7673 15.3288 10.1411C15.3288 8.51491 14.6828 6.95534 13.5329 5.80546C12.383 4.65557 10.8235 4.00958 9.19729 4.00958C7.57111 4.00958 6.01154 4.65557 4.86165 5.80546C3.71177 6.95534 3.06578 8.51491 3.06578 10.1411C3.06578 11.7673 3.71177 13.3268 4.86165 14.4767C6.01154 15.6266 7.57111 16.2726 9.19729 16.2726ZM9.19729 17.8055C4.96425 17.8055 1.5329 14.3741 1.5329 10.1411C1.5329 5.90805 4.96425 2.4767 9.19729 2.4767C13.4303 2.4767 16.8617 5.90805 16.8617 10.1411C16.8617 14.3741 13.4303 17.8055 9.19729 17.8055Z" fill="white"/>
<path d="M11.4376 7.47838L6.95701 7.47838C6.0779 7.47838 5.36511 8.1835 5.36511 9.05264L5.36511 11.2677C5.36511 12.1376 6.0779 12.8419 6.95701 12.8419H11.4376C12.3167 12.8419 13.0295 12.1368 13.0295 11.2677V9.05264C13.0295 8.18274 12.3167 7.47838 11.4376 7.47838ZM10.3615 10.2682L8.26532 11.2569C8.25249 11.263 8.23835 11.2657 8.22419 11.2649C8.21003 11.264 8.19632 11.2596 8.18433 11.252C8.17233 11.2444 8.16243 11.234 8.15556 11.2216C8.14868 11.2092 8.14505 11.1952 8.14499 11.181V9.14232C8.14511 9.12795 8.14891 9.11386 8.15602 9.10137C8.16312 9.08888 8.1733 9.07842 8.18558 9.07097C8.19787 9.06352 8.21185 9.05934 8.22621 9.05881C8.24057 9.05829 8.25482 9.06144 8.26762 9.06797L10.3631 10.118C10.3768 10.1252 10.3884 10.1361 10.3963 10.1494C10.4043 10.1627 10.4085 10.178 10.4083 10.1936C10.4082 10.2091 10.4037 10.2243 10.3954 10.2375C10.3872 10.2507 10.3755 10.2613 10.3615 10.2682Z" fill="white"/>
</svg>
